<?xml version="1.0" encoding="utf-8"?>
<!-- Generator: Adobe Illustrator 21.0.0, SVG Export Plug-In . SVG Version: 6.00 Build 0)  -->
<svg version="1.1" id="Layer_1" xmlns="http://www.w3.org/2000/svg" xmlns:xlink="http://www.w3.org/1999/xlink" x="0px" y="0px"
	 viewBox="0 0 81.1 73.7" style="enable-background:new 0 0 81.1 73.7;" xml:space="preserve">
<style type="text/css">
	.st0{fill:none;stroke:#5595B6;stroke-width:3;stroke-miterlimit:10;}
</style>
<path class="st0" d="M65.1,28.3c-8-17.7-24-27.9-38.4-25.7C17.8,4,5.5,10.5,3.2,22.2c-1.8,8.8,3.1,16,3.8,17
	C14.5,50,29.1,49.7,34.2,49.6c11.2-0.2,27.4-5,30.5-15.8C65.3,31.6,65.3,29.7,65.1,28.3z"/>
<path class="st0" d="M3.6,23.7c5.3-2.9,13.9-6.6,24.6-6.9c19.8-0.5,39,10.7,37.9,15.7c-1.2,5.3-22,8.1-39.3,4
	C16.3,34.1,8.5,29.4,3.4,25.7"/>
<line class="st0" x1="19" y1="48.7" x2="19.6" y2="56.6"/>
<line class="st0" x1="37.8" y1="50.8" x2="38" y2="57.9"/>
<path class="st0" d="M15,55.7c-0.3,1.3-3.3,7.7,0.6,11.3c0.8,0.7,1.8,1.3,5.5,2c8.6,1.8,12.9,2.7,15.7,0.6
	c4.2-3.2,3.6-10.3,3.5-11.6"/>
<line class="st0" x1="13.2" y1="55.7" x2="41.3" y2="58.9"/>
<path class="st0" d="M65.9,31c0,0,3.7-7.6,8.1-5.9c4.4,1.7,4.1,6.7,4.1,6.7s-0.9,3.5-3.9,3.5c-3,0-9.4-1.5-9.4-1.5"/>
<path class="st0" d="M64.2,35.3c0,0,3.9,7,6.2,7.4c2.3,0.4,5.4,0,5.4,0s2-3.2,2.3-4.6c0.3-1.5-3.9-2.8-3.9-2.8"/>
<line class="st0" x1="13.2" y1="60.2" x2="39.7" y2="64.9"/>
</svg>
